<mxfile host="Electron" agent="Mozilla/5.0 (Windows NT 10.0; Win64; x64) AppleWebKit/537.36 (KHTML, like Gecko) draw.io/26.1.1 Chrome/132.0.6834.210 Electron/34.3.3 Safari/537.36" version="26.1.1">
  <diagram name="Page-1" id="BPkZynx3qzNLG8B2WrqL">
    <mxGraphModel dx="393" dy="724" grid="1" gridSize="10" guides="1" tooltips="1" connect="1" arrows="1" fold="1" page="1" pageScale="1" pageWidth="850" pageHeight="1100" math="0" shadow="0">
      <root>
        <mxCell id="0" />
        <mxCell id="1" parent="0" />
        <mxCell id="Q_bx39-hRShvx4yESJkS-11" value="" style="rounded=1;whiteSpace=wrap;html=1;gradientColor=light-dark(#f8f7f7, #ededed);fillColor=#FFB651;" parent="1" vertex="1">
          <mxGeometry x="240" y="100" width="160" height="410" as="geometry" />
        </mxCell>
        <mxCell id="Q_bx39-hRShvx4yESJkS-2" value="" style="rounded=1;whiteSpace=wrap;html=1;rotation=-90;fillColor=none;" parent="1" vertex="1">
          <mxGeometry x="-60" y="250" width="410" height="110" as="geometry" />
        </mxCell>
        <mxCell id="-r8wjF8NnxJ5iFNR4QeL-1" style="edgeStyle=orthogonalEdgeStyle;rounded=0;orthogonalLoop=1;jettySize=auto;html=1;entryX=0;entryY=0.5;entryDx=0;entryDy=0;" edge="1" parent="1" source="Q_bx39-hRShvx4yESJkS-3" target="Q_bx39-hRShvx4yESJkS-16">
          <mxGeometry relative="1" as="geometry">
            <Array as="points">
              <mxPoint x="215" y="205" />
              <mxPoint x="215" y="145" />
            </Array>
          </mxGeometry>
        </mxCell>
        <mxCell id="-r8wjF8NnxJ5iFNR4QeL-2" style="edgeStyle=orthogonalEdgeStyle;rounded=0;orthogonalLoop=1;jettySize=auto;html=1;entryX=0;entryY=0.5;entryDx=0;entryDy=0;" edge="1" parent="1" source="Q_bx39-hRShvx4yESJkS-3" target="Q_bx39-hRShvx4yESJkS-17">
          <mxGeometry relative="1" as="geometry" />
        </mxCell>
        <mxCell id="-r8wjF8NnxJ5iFNR4QeL-3" style="edgeStyle=orthogonalEdgeStyle;rounded=0;orthogonalLoop=1;jettySize=auto;html=1;entryX=0;entryY=0.5;entryDx=0;entryDy=0;" edge="1" parent="1" source="Q_bx39-hRShvx4yESJkS-3" target="Q_bx39-hRShvx4yESJkS-18">
          <mxGeometry relative="1" as="geometry" />
        </mxCell>
        <mxCell id="Q_bx39-hRShvx4yESJkS-3" value="" style="image;aspect=fixed;perimeter=ellipsePerimeter;html=1;align=center;shadow=0;dashed=0;spacingTop=3;image=img/lib/active_directory/folder.svg;" parent="1" vertex="1">
          <mxGeometry x="119.45" y="170" width="51.1" height="70" as="geometry" />
        </mxCell>
        <mxCell id="-r8wjF8NnxJ5iFNR4QeL-4" style="edgeStyle=orthogonalEdgeStyle;rounded=0;orthogonalLoop=1;jettySize=auto;html=1;entryX=0;entryY=0.5;entryDx=0;entryDy=0;" edge="1" parent="1" source="Q_bx39-hRShvx4yESJkS-4" target="Q_bx39-hRShvx4yESJkS-19">
          <mxGeometry relative="1" as="geometry" />
        </mxCell>
        <mxCell id="-r8wjF8NnxJ5iFNR4QeL-5" style="edgeStyle=orthogonalEdgeStyle;rounded=0;orthogonalLoop=1;jettySize=auto;html=1;entryX=0;entryY=0.5;entryDx=0;entryDy=0;" edge="1" parent="1" source="Q_bx39-hRShvx4yESJkS-4" target="Q_bx39-hRShvx4yESJkS-20">
          <mxGeometry relative="1" as="geometry" />
        </mxCell>
        <mxCell id="-r8wjF8NnxJ5iFNR4QeL-6" style="edgeStyle=orthogonalEdgeStyle;rounded=0;orthogonalLoop=1;jettySize=auto;html=1;entryX=0;entryY=0.5;entryDx=0;entryDy=0;" edge="1" parent="1" source="Q_bx39-hRShvx4yESJkS-4" target="Q_bx39-hRShvx4yESJkS-21">
          <mxGeometry relative="1" as="geometry" />
        </mxCell>
        <mxCell id="Q_bx39-hRShvx4yESJkS-4" value="" style="image;aspect=fixed;perimeter=ellipsePerimeter;html=1;align=center;shadow=0;dashed=0;spacingTop=3;image=img/lib/active_directory/folder.svg;" parent="1" vertex="1">
          <mxGeometry x="119.45" y="320" width="51.1" height="70" as="geometry" />
        </mxCell>
        <mxCell id="Q_bx39-hRShvx4yESJkS-5" value="&lt;font&gt;Sources&lt;/font&gt;" style="text;html=1;align=center;verticalAlign=middle;resizable=0;points=[];autosize=1;strokeColor=none;fillColor=none;fontSize=18;" parent="1" vertex="1">
          <mxGeometry x="100" y="60" width="90" height="40" as="geometry" />
        </mxCell>
        <mxCell id="Q_bx39-hRShvx4yESJkS-6" value="&lt;b&gt;&lt;font&gt;CRM&lt;/font&gt;&lt;/b&gt;" style="text;html=1;align=center;verticalAlign=middle;resizable=0;points=[];autosize=1;strokeColor=none;fillColor=none;fontSize=14;" parent="1" vertex="1">
          <mxGeometry x="125" y="230" width="60" height="30" as="geometry" />
        </mxCell>
        <mxCell id="Q_bx39-hRShvx4yESJkS-7" value="&lt;b&gt;ERP&lt;/b&gt;" style="text;html=1;align=center;verticalAlign=middle;resizable=0;points=[];autosize=1;strokeColor=none;fillColor=none;fontSize=14;" parent="1" vertex="1">
          <mxGeometry x="130" y="380" width="50" height="30" as="geometry" />
        </mxCell>
        <mxCell id="Q_bx39-hRShvx4yESJkS-8" value="&lt;b&gt;&lt;font style=&quot;font-size: 14px;&quot;&gt;Bronze Layer&lt;/font&gt;&lt;/b&gt;" style="rounded=1;whiteSpace=wrap;html=1;labelBackgroundColor=none;fillColor=#FFB651;" parent="1" vertex="1">
          <mxGeometry x="240" y="30" width="160" height="50" as="geometry" />
        </mxCell>
        <mxCell id="Q_bx39-hRShvx4yESJkS-12" value="&lt;font style=&quot;font-size: 14px;&quot;&gt;&lt;b&gt;Silver Layer&lt;/b&gt;&lt;/font&gt;" style="rounded=1;whiteSpace=wrap;html=1;fillColor=#f5f5f5;fontColor=#333333;strokeColor=#666666;" parent="1" vertex="1">
          <mxGeometry x="440" y="30" width="160" height="50" as="geometry" />
        </mxCell>
        <mxCell id="Q_bx39-hRShvx4yESJkS-13" value="" style="rounded=1;whiteSpace=wrap;html=1;gradientColor=light-dark(#fafafa, #ededed);fillColor=light-dark(#bebbbb, #ededed);" parent="1" vertex="1">
          <mxGeometry x="440" y="100" width="160" height="410" as="geometry" />
        </mxCell>
        <mxCell id="Q_bx39-hRShvx4yESJkS-14" value="&lt;font style=&quot;font-size: 14px;&quot;&gt;&lt;b&gt;Gold Layer&lt;/b&gt;&lt;/font&gt;" style="rounded=1;whiteSpace=wrap;html=1;fillColor=light-dark(#fff266, #281d00);strokeColor=#d6b656;" parent="1" vertex="1">
          <mxGeometry x="640" y="30" width="160" height="50" as="geometry" />
        </mxCell>
        <mxCell id="Q_bx39-hRShvx4yESJkS-15" value="" style="rounded=1;whiteSpace=wrap;html=1;fillColor=light-dark(#fff266, #281d00);strokeColor=#d6b656;gradientColor=light-dark(#f7f7f7, #ededed);" parent="1" vertex="1">
          <mxGeometry x="640" y="100" width="160" height="410" as="geometry" />
        </mxCell>
        <mxCell id="cJpF756TYcrmh6qtJdiV-7" style="edgeStyle=orthogonalEdgeStyle;rounded=0;orthogonalLoop=1;jettySize=auto;html=1;exitX=1;exitY=0.5;exitDx=0;exitDy=0;" parent="1" source="Q_bx39-hRShvx4yESJkS-16" target="cJpF756TYcrmh6qtJdiV-1" edge="1">
          <mxGeometry relative="1" as="geometry" />
        </mxCell>
        <mxCell id="Q_bx39-hRShvx4yESJkS-16" value="crm_sales_details" style="rounded=1;whiteSpace=wrap;html=1;" parent="1" vertex="1">
          <mxGeometry x="260" y="130" width="120" height="30" as="geometry" />
        </mxCell>
        <mxCell id="cJpF756TYcrmh6qtJdiV-8" style="edgeStyle=orthogonalEdgeStyle;rounded=0;orthogonalLoop=1;jettySize=auto;html=1;entryX=0;entryY=0.5;entryDx=0;entryDy=0;" parent="1" source="Q_bx39-hRShvx4yESJkS-17" target="cJpF756TYcrmh6qtJdiV-2" edge="1">
          <mxGeometry relative="1" as="geometry" />
        </mxCell>
        <mxCell id="Q_bx39-hRShvx4yESJkS-17" value="crm_cust_info" style="rounded=1;whiteSpace=wrap;html=1;" parent="1" vertex="1">
          <mxGeometry x="260" y="170" width="120" height="30" as="geometry" />
        </mxCell>
        <mxCell id="cJpF756TYcrmh6qtJdiV-9" style="edgeStyle=orthogonalEdgeStyle;rounded=0;orthogonalLoop=1;jettySize=auto;html=1;entryX=0;entryY=0.5;entryDx=0;entryDy=0;" parent="1" source="Q_bx39-hRShvx4yESJkS-18" target="cJpF756TYcrmh6qtJdiV-3" edge="1">
          <mxGeometry relative="1" as="geometry" />
        </mxCell>
        <mxCell id="Q_bx39-hRShvx4yESJkS-18" value="crm_prod_info" style="rounded=1;whiteSpace=wrap;html=1;" parent="1" vertex="1">
          <mxGeometry x="260" y="210" width="120" height="30" as="geometry" />
        </mxCell>
        <mxCell id="cJpF756TYcrmh6qtJdiV-10" style="edgeStyle=orthogonalEdgeStyle;rounded=0;orthogonalLoop=1;jettySize=auto;html=1;entryX=0;entryY=0.5;entryDx=0;entryDy=0;" parent="1" source="Q_bx39-hRShvx4yESJkS-19" target="cJpF756TYcrmh6qtJdiV-4" edge="1">
          <mxGeometry relative="1" as="geometry" />
        </mxCell>
        <mxCell id="Q_bx39-hRShvx4yESJkS-19" value="erp_cust_az12" style="rounded=1;whiteSpace=wrap;html=1;" parent="1" vertex="1">
          <mxGeometry x="260" y="300" width="120" height="30" as="geometry" />
        </mxCell>
        <mxCell id="cJpF756TYcrmh6qtJdiV-11" style="edgeStyle=orthogonalEdgeStyle;rounded=0;orthogonalLoop=1;jettySize=auto;html=1;entryX=0;entryY=0.5;entryDx=0;entryDy=0;" parent="1" source="Q_bx39-hRShvx4yESJkS-20" target="cJpF756TYcrmh6qtJdiV-5" edge="1">
          <mxGeometry relative="1" as="geometry" />
        </mxCell>
        <mxCell id="Q_bx39-hRShvx4yESJkS-20" value="erp_loc_a101" style="rounded=1;whiteSpace=wrap;html=1;" parent="1" vertex="1">
          <mxGeometry x="260" y="340" width="120" height="30" as="geometry" />
        </mxCell>
        <mxCell id="cJpF756TYcrmh6qtJdiV-12" style="edgeStyle=orthogonalEdgeStyle;rounded=0;orthogonalLoop=1;jettySize=auto;html=1;" parent="1" source="Q_bx39-hRShvx4yESJkS-21" target="cJpF756TYcrmh6qtJdiV-6" edge="1">
          <mxGeometry relative="1" as="geometry" />
        </mxCell>
        <mxCell id="Q_bx39-hRShvx4yESJkS-21" value="erp_px_cat_giv2" style="rounded=1;whiteSpace=wrap;html=1;" parent="1" vertex="1">
          <mxGeometry x="260" y="380" width="120" height="30" as="geometry" />
        </mxCell>
        <mxCell id="Q_bx39-hRShvx4yESJkS-29" value="fact_sales" style="rounded=1;whiteSpace=wrap;html=1;" parent="1" vertex="1">
          <mxGeometry x="660" y="200" width="120" height="30" as="geometry" />
        </mxCell>
        <mxCell id="Q_bx39-hRShvx4yESJkS-31" value="dim_products" style="rounded=1;whiteSpace=wrap;html=1;" parent="1" vertex="1">
          <mxGeometry x="660" y="340" width="120" height="30" as="geometry" />
        </mxCell>
        <mxCell id="Q_bx39-hRShvx4yESJkS-33" value="dim_customers" style="rounded=1;whiteSpace=wrap;html=1;" parent="1" vertex="1">
          <mxGeometry x="660" y="260" width="120" height="30" as="geometry" />
        </mxCell>
        <mxCell id="cJpF756TYcrmh6qtJdiV-1" value="crm_sales_details" style="rounded=1;whiteSpace=wrap;html=1;" parent="1" vertex="1">
          <mxGeometry x="460" y="130" width="120" height="30" as="geometry" />
        </mxCell>
        <mxCell id="cJpF756TYcrmh6qtJdiV-14" style="rounded=0;orthogonalLoop=1;jettySize=auto;html=1;entryX=0;entryY=0;entryDx=0;entryDy=0;exitX=1;exitY=1;exitDx=0;exitDy=0;" parent="1" source="cJpF756TYcrmh6qtJdiV-2" target="Q_bx39-hRShvx4yESJkS-33" edge="1">
          <mxGeometry relative="1" as="geometry" />
        </mxCell>
        <mxCell id="cJpF756TYcrmh6qtJdiV-2" value="crm_cust_info" style="rounded=1;whiteSpace=wrap;html=1;" parent="1" vertex="1">
          <mxGeometry x="460" y="170" width="120" height="30" as="geometry" />
        </mxCell>
        <mxCell id="cJpF756TYcrmh6qtJdiV-3" value="crm_prod_info" style="rounded=1;whiteSpace=wrap;html=1;" parent="1" vertex="1">
          <mxGeometry x="460" y="210" width="120" height="30" as="geometry" />
        </mxCell>
        <mxCell id="cJpF756TYcrmh6qtJdiV-20" style="rounded=0;orthogonalLoop=1;jettySize=auto;html=1;entryX=0;entryY=0.5;entryDx=0;entryDy=0;fillColor=#dae8fc;strokeColor=#0B0B0B;" parent="1" source="cJpF756TYcrmh6qtJdiV-4" target="Q_bx39-hRShvx4yESJkS-33" edge="1">
          <mxGeometry relative="1" as="geometry" />
        </mxCell>
        <mxCell id="cJpF756TYcrmh6qtJdiV-4" value="erp_cust_az12" style="rounded=1;whiteSpace=wrap;html=1;" parent="1" vertex="1">
          <mxGeometry x="460" y="300" width="120" height="30" as="geometry" />
        </mxCell>
        <mxCell id="cJpF756TYcrmh6qtJdiV-19" style="rounded=0;orthogonalLoop=1;jettySize=auto;html=1;entryX=0;entryY=0.75;entryDx=0;entryDy=0;exitX=1;exitY=0;exitDx=0;exitDy=0;" parent="1" source="cJpF756TYcrmh6qtJdiV-5" target="Q_bx39-hRShvx4yESJkS-33" edge="1">
          <mxGeometry relative="1" as="geometry" />
        </mxCell>
        <mxCell id="cJpF756TYcrmh6qtJdiV-5" value="erp_loc_a101" style="rounded=1;whiteSpace=wrap;html=1;" parent="1" vertex="1">
          <mxGeometry x="460" y="340" width="120" height="30" as="geometry" />
        </mxCell>
        <mxCell id="cJpF756TYcrmh6qtJdiV-18" style="rounded=0;orthogonalLoop=1;jettySize=auto;html=1;entryX=0;entryY=0.5;entryDx=0;entryDy=0;" parent="1" source="cJpF756TYcrmh6qtJdiV-6" target="Q_bx39-hRShvx4yESJkS-31" edge="1">
          <mxGeometry relative="1" as="geometry" />
        </mxCell>
        <mxCell id="cJpF756TYcrmh6qtJdiV-6" value="erp_px_cat_giv2" style="rounded=1;whiteSpace=wrap;html=1;" parent="1" vertex="1">
          <mxGeometry x="460" y="380" width="120" height="30" as="geometry" />
        </mxCell>
        <mxCell id="cJpF756TYcrmh6qtJdiV-13" style="edgeStyle=orthogonalEdgeStyle;rounded=0;orthogonalLoop=1;jettySize=auto;html=1;entryX=0.5;entryY=0.333;entryDx=0;entryDy=0;entryPerimeter=0;" parent="1" source="cJpF756TYcrmh6qtJdiV-1" target="Q_bx39-hRShvx4yESJkS-29" edge="1">
          <mxGeometry relative="1" as="geometry" />
        </mxCell>
        <mxCell id="cJpF756TYcrmh6qtJdiV-17" style="rounded=0;orthogonalLoop=1;jettySize=auto;html=1;entryX=0;entryY=0.5;entryDx=0;entryDy=0;strokeColor=default;" parent="1" source="cJpF756TYcrmh6qtJdiV-16" target="Q_bx39-hRShvx4yESJkS-31" edge="1">
          <mxGeometry relative="1" as="geometry" />
        </mxCell>
        <mxCell id="cJpF756TYcrmh6qtJdiV-16" value="crm_prod_info" style="rounded=1;whiteSpace=wrap;html=1;" parent="1" vertex="1">
          <mxGeometry x="460" y="210" width="120" height="30" as="geometry" />
        </mxCell>
      </root>
    </mxGraphModel>
  </diagram>
</mxfile>
